<svg width="180" height="150" viewBox="0 0 180 150" fill="none" xmlns="http://www.w3.org/2000/svg">
<g clip-path="url(#clip0_2_308)">
<path opacity="0.4" d="M151.919 57.6691C154.301 57.6691 156.232 55.5281 156.232 52.8871C156.232 50.246 154.301 48.105 151.919 48.105C149.537 48.105 147.606 50.246 147.606 52.8871C147.606 55.5281 149.537 57.6691 151.919 57.6691Z" fill="#6C63FF"/>
<path opacity="0.4" d="M60.982 31.36C64.3777 31.36 67.1304 28.3079 67.1304 24.543C67.1304 20.7781 64.3777 17.726 60.982 17.726C57.5864 17.726 54.8337 20.7781 54.8337 24.543C54.8337 28.3079 57.5864 31.36 60.982 31.36Z" fill="#6C63FF"/>
<path opacity="0.4" d="M49.603 32.581C51.985 32.581 53.916 30.44 53.916 27.7989C53.916 25.1578 51.985 23.0168 49.603 23.0168C47.221 23.0168 45.29 25.1578 45.29 27.7989C45.29 30.44 47.221 32.581 49.603 32.581Z" fill="#6C63FF"/>
<path d="M155.531 106.363C152.123 110.5 151.999 116.526 151.999 116.526C151.999 116.526 157.401 115.845 160.809 111.708C164.217 107.571 164.34 101.545 164.34 101.545C164.34 101.545 158.939 102.226 155.531 106.363Z" fill="#3F3D56"/>
<path d="M157.456 107.553C156.425 113.038 152.09 116.676 152.09 116.676C152.09 116.676 149.427 111.421 150.458 105.936C151.49 100.451 155.824 96.8135 155.824 96.8135C155.824 96.8135 158.487 102.068 157.456 107.553Z" fill="#6C63FF"/>
<path d="M153.03 50.9576V116.341L133.373 134.346H32.8091V65.8032L62.152 50.9576H153.03Z" fill="#3F3D56"/>
<path opacity="0.1" d="M153.03 50.9576V51.2196L145.973 56.4567L133.373 65.8032H32.8091L62.152 50.9576H153.03Z" fill="black"/>
<path opacity="0.1" d="M153.03 50.9576V116.341L133.373 134.346L133.515 65.6453L145.973 56.4567L152.916 50.9576H153.03Z" fill="black"/>
<path d="M126.536 59.9597H65.2858L69.8439 57.1168H128.53L126.536 59.9597Z" fill="#2F2E41"/>
<path d="M179.399 137.902C179.399 137.902 180.586 143.407 179.507 143.647C178.427 143.886 173.138 143.809 171.842 144.048C170.547 144.288 167.848 143.886 167.848 142.809C167.848 141.732 170.655 141.014 170.655 141.014C170.655 141.014 174.649 138.62 174.757 138.5C174.865 138.381 179.399 137.902 179.399 137.902Z" fill="#2F2E41"/>
<path d="M178.427 105.467C178.427 105.467 178.103 109.537 178.103 109.896C178.103 110.255 178.427 115.88 178.103 116.119C177.779 116.359 178.319 118.034 178.319 118.633C178.319 119.231 180.046 129.165 179.615 132.995C179.183 136.825 180.262 136.466 179.938 136.825C179.615 137.184 179.615 137.184 179.615 137.902C179.615 138.62 176.16 139.219 176.16 139.219L172.382 112.768L174.325 104.869L178.427 105.467Z" fill="#575A89"/>
<path opacity="0.1" d="M178.427 105.467C178.427 105.467 178.103 109.537 178.103 109.896C178.103 110.255 178.427 115.88 178.103 116.119C177.779 116.359 178.319 118.034 178.319 118.633C178.319 119.231 180.046 129.165 179.615 132.995C179.183 136.825 180.262 136.466 179.938 136.825C179.615 137.184 179.615 137.184 179.615 137.902C179.615 138.62 176.16 139.219 176.16 139.219L172.382 112.768L174.325 104.869L178.427 105.467Z" fill="black"/>
<path d="M177.887 139.578C177.887 139.578 178.967 143.886 177.887 144.126C176.808 144.365 171.519 143.851 170.223 144.091C168.928 144.33 166.229 144.365 166.229 143.288C166.229 142.211 169.036 141.493 169.036 141.493C169.036 141.493 173.03 139.099 173.138 138.979C173.246 138.859 177.887 139.578 177.887 139.578Z" fill="#2F2E41"/>
<path d="M179.399 100.68C179.399 100.68 180.694 104.151 179.183 105.946C177.672 107.741 175.944 111.332 175.944 111.571C175.944 111.811 178.967 135.628 178.535 137.184C178.103 138.74 178.211 139.697 178.319 139.937C178.427 140.176 177.24 141.493 175.944 141.493C174.649 141.493 172.706 140.415 172.49 139.458C172.274 138.5 172.814 130.242 172.706 128.686C172.598 127.13 172.058 124.856 171.842 124.378C171.627 123.899 170.439 123.42 170.223 121.984C170.007 120.548 168.28 102.236 168.82 101.637C169.36 101.039 179.399 100.68 179.399 100.68Z" fill="#575A89"/>
<path d="M171.195 73.1524C173.222 73.1524 174.865 71.3305 174.865 69.0831C174.865 66.8357 173.222 65.0138 171.195 65.0138C169.168 65.0138 167.525 66.8357 167.525 69.0831C167.525 71.3305 169.168 73.1524 171.195 73.1524Z" fill="#FFB9B9"/>
<path d="M173.462 71.1178C173.462 71.1178 172.706 75.5461 173.246 76.0248C173.785 76.5036 169.144 77.2217 169.144 77.2217C169.144 77.2217 168.604 71.3571 168.496 70.7587C168.388 70.1603 173.462 71.1178 173.462 71.1178Z" fill="#FFB9B9"/>
<path d="M168.496 76.8626C168.496 76.8626 169.791 72.6737 175.081 73.8705C175.081 73.8705 176.052 74.2296 175.729 74.5886C175.405 74.9477 175.081 74.9477 175.513 75.3067C175.944 75.6658 176.484 75.3067 176.16 75.6658C175.836 76.0248 179.075 78.1792 178.859 82.2484C178.643 86.3177 179.615 92.0626 178.859 93.0201C178.103 93.9776 179.399 98.1665 179.183 99.0043C178.967 99.8421 180.478 100.919 179.83 101.278C179.183 101.637 167.525 103.792 167.201 101.278C166.877 98.765 167.093 100.56 166.769 99.9618C166.445 99.3634 166.337 98.2862 166.553 96.9697C166.769 95.6532 167.309 92.4217 167.093 91.2248C166.877 90.028 167.093 79.9744 167.741 78.7776C168.388 77.5808 168.496 76.8626 168.496 76.8626Z" fill="#6C63FF"/>
<path d="M170.763 106.066C170.763 106.066 172.382 112.888 170.331 112.888C168.28 112.888 168.388 105.826 168.388 105.826L170.763 106.066Z" fill="#FFB9B9"/>
<path d="M169.576 69.0831C169.576 69.4302 170.029 69.6504 170.732 69.7007H170.733C171.031 69.7195 171.329 69.7131 171.627 69.6815C172.076 69.6361 172.261 70.104 172.338 70.7216C172.463 71.7401 172.288 73.168 172.49 73.3918C172.769 73.7006 174.799 73.3906 175.434 72.6904C175.533 72.5922 175.598 72.4597 175.621 72.3146C175.687 71.8871 175.877 71.4951 176.162 71.1979C176.537 70.7443 177.07 70.2417 177.672 69.4422C178.751 68.006 177.672 67.8863 177.348 66.8091C177.024 65.7319 176.484 65.3729 176.484 64.6548C176.484 63.9367 174.001 63.3382 171.95 63.4579C169.899 63.5776 170.331 66.45 170.331 66.45C170.331 66.45 170.209 66.7971 170.063 67.2448C169.866 67.8065 169.706 68.3832 169.584 68.9706C169.579 69.0079 169.576 69.0454 169.576 69.0831Z" fill="#2F2E41"/>
<path opacity="0.1" d="M170.007 78.6579C170.007 78.6579 173.677 78.4185 174.001 84.4028C174.325 90.387 174.217 96.0122 174.217 96.1319C174.217 96.2516 172.706 107.622 171.303 107.622C169.899 107.622 168.82 107.382 168.496 106.784C168.172 106.185 169.36 97.5681 169.36 97.5681C169.36 97.5681 169.899 88.4721 169.036 85.5996C168.172 82.7272 168.064 79.017 170.007 78.6579Z" fill="black"/>
<path d="M169.468 78.0595C169.468 78.0595 173.138 77.8201 173.462 83.8044C173.785 89.7886 173.677 95.4138 173.677 95.5335C173.677 95.6532 172.166 107.023 170.763 107.023C169.36 107.023 168.28 106.784 167.956 106.185C167.633 105.587 168.82 96.9697 168.82 96.9697C168.82 96.9697 169.36 87.8737 168.496 85.0012C167.633 82.1288 167.525 78.4186 169.468 78.0595Z" fill="#6C63FF"/>
<path d="M108.608 19.556C108.608 19.556 107.009 14.5313 105.854 16.1077C104.698 17.684 107.631 20.3442 107.631 20.3442L108.608 19.556Z" fill="#A0616A"/>
<path d="M116.161 14.6298L115.199 15.0252C115.199 15.0252 114.74 17.2899 114.917 17.684C115.095 18.0781 115.184 17.7826 114.917 18.5708C114.651 19.3589 113.851 21.4279 113.762 21.7235C113.673 22.0191 108.608 19.8516 108.608 18.7678C108.608 18.7678 107.542 20.1471 107.009 20.4427C107.009 20.4427 112.874 25.1718 113.673 25.7629C114.473 26.3541 114.917 26.0585 115.628 25.3689C116.339 24.6792 119.36 18.9648 119.36 18.9648L116.161 14.6298Z" fill="#575A89"/>
<path d="M113.584 49.6056C113.584 49.6056 113.673 50.6893 113.851 50.7878C114.029 50.8864 115.362 53.3494 113.851 53.842C112.34 54.3346 111.452 54.1376 111.096 54.3347C110.741 54.5317 104.521 54.9258 104.432 53.842C104.343 52.7583 107.453 52.5612 107.453 52.5612C107.453 52.5612 110.297 50.4923 110.741 49.4085C111.185 48.3247 113.584 49.6056 113.584 49.6056Z" fill="#2F2E41"/>
<path d="M131.623 51.576C131.623 51.576 133.756 55.6155 133.222 56.1081C132.689 56.6007 127.497 58.3959 126.736 58.4726C125.758 58.5712 125.047 57.6845 125.847 57.1918C126.647 56.6992 128.335 54.6302 128.335 53.9406V52.1671L131.623 51.576Z" fill="#2F2E41"/>
<path d="M133.667 25.1718C133.667 25.1718 135.533 27.7334 132.6 31.8714L127.713 38.768C127.713 38.768 130.734 44.0883 130.823 46.8469C130.912 49.6056 131.534 49.0144 131.712 50.1967C131.89 51.379 132.689 50.7878 132.067 51.6745C131.445 52.5613 129.135 53.3494 128.424 52.6598C128.179 52.4118 127.989 52.1058 127.865 51.7646C127.742 51.4235 127.69 51.0559 127.713 50.6893C127.713 50.2952 126.469 48.0292 126.38 47.3395C126.291 46.6499 123.004 41.034 123.004 41.034C123.004 41.034 121.937 37.6842 123.181 35.8123C124.425 33.9404 125.247 31.2854 125.247 31.2854C125.247 31.2854 121.582 36.2064 119.005 37.3887C119.005 37.3887 118.027 37.5857 118.205 38.0783C118.383 38.571 118.205 38.8665 117.939 39.3591C117.672 39.8518 115.806 45.5661 115.184 47.044C114.562 48.5218 114.828 49.4085 114.118 49.9011C113.407 50.3937 110.208 49.9997 110.208 49.507C110.208 49.0144 110.652 47.7336 110.919 47.044C111.185 46.3543 113.318 38.3739 113.14 36.9946C112.962 35.6153 113.229 33.7433 114.562 32.9551C115.895 32.167 122.648 25.7629 123.004 25.7629C123.359 25.7629 133.667 25.1718 133.667 25.1718Z" fill="#2F2E41"/>
<path d="M115.806 9.70367C117.867 9.70367 119.538 7.85103 119.538 5.56569C119.538 3.28035 117.867 1.42772 115.806 1.42772C113.745 1.42772 112.074 3.28035 112.074 5.56569C112.074 7.85103 113.745 9.70367 115.806 9.70367Z" fill="#A0616A"/>
<path d="M118.827 5.95978C118.827 5.95978 119.982 8.22581 121.404 8.52139C122.826 8.81697 117.672 13.349 117.672 13.349C117.672 13.349 116.428 9.01401 115.362 8.81696C114.295 8.61991 118.827 5.95978 118.827 5.95978Z" fill="#A0616A"/>
<path d="M115.184 15.221C115.184 16.5018 118.649 20.1471 118.649 20.1471L121.937 23.2013C121.937 23.2013 122.026 24.2851 122.382 24.3836C122.737 24.4821 123.181 24.4821 122.826 25.0733C122.47 25.6644 121.582 26.9452 122.382 27.1423C122.623 27.1829 122.866 27.2086 123.109 27.2191C123.323 27.2329 123.573 27.2457 123.855 27.2575C124.512 27.2831 125.335 27.2999 126.227 27.293C126.48 27.292 126.737 27.2887 127 27.2831C130.359 27.2092 134.251 26.7807 133.933 25.3688C133.4 23.0043 133.756 22.2161 132.6 20.9353C131.445 19.6545 129.579 15.2209 129.579 15.2209C129.579 15.2209 125.847 8.2258 122.737 8.2258L122.091 8.03762C121.791 7.94995 121.473 7.96918 121.184 8.0926C120.894 8.21602 120.646 8.43737 120.476 8.72532C119.853 9.77853 118.869 11.3608 118.294 11.8712C117.405 12.6593 117.267 12.0938 117.267 12.0938C117.267 12.0938 115.184 13.9402 115.184 15.221Z" fill="#575A89"/>
<path d="M123.092 30.1965C123.092 30.1965 120.515 34.63 122.115 35.4182C123.714 36.2064 124.603 30.7876 124.603 30.7876L123.092 30.1965Z" fill="#A0616A"/>
<path d="M118.246 5.09836C118.103 5.07832 118.057 4.87793 118.033 4.72011C117.904 3.87495 117.336 3.07351 116.573 2.93708C116.281 2.89405 115.984 2.92056 115.703 3.01483C115.299 3.13763 114.92 3.34441 114.586 3.62415C114.423 3.78976 114.234 3.92135 114.028 4.0126C113.888 4.05819 113.293 4.3513 113.155 4.40089C112.849 4.50993 112.596 4.86442 112.282 4.79423C111.981 4.72708 111.866 4.32412 111.818 3.98797C111.708 3.22217 112.103 2.07953 112.496 1.43808C112.795 0.951308 113.299 0.671167 113.804 0.488915C114.395 0.28993 115.003 0.156092 115.618 0.0893446C116.448 -0.019357 117.308 -0.0770291 118.103 0.207473C118.899 0.491975 119.623 1.18793 119.772 2.09999C119.802 2.28998 119.808 2.48458 119.846 2.67301C119.939 3.13269 120.213 3.51907 120.373 3.95535C120.488 4.27576 120.542 4.61944 120.53 4.96422C120.519 5.30901 120.442 5.64725 120.305 5.95713C120.083 6.45119 119.698 6.92595 119.781 7.46996L119.096 6.87046C118.997 6.80804 118.92 6.70982 118.878 6.5922C118.836 6.47458 118.832 6.34468 118.867 6.22417L118.966 5.27219C119.001 5.09971 118.985 4.91956 118.922 4.75748C118.617 4.16718 118.485 5.13177 118.246 5.09836Z" fill="#2F2E41"/>
<path opacity="0.1" d="M124.692 23.3984L123.855 27.2575C124.699 27.291 125.816 27.3088 127 27.2832C127.298 26.29 127.583 25.2546 127.802 24.2851C128.602 20.7383 127.269 15.3195 126.558 12.7579C125.847 10.1963 124.07 9.50661 124.07 9.50661C123.341 9.79071 122.653 10.1888 122.026 10.6889C120.871 11.5756 124.692 23.3984 124.692 23.3984Z" fill="black"/>
<path opacity="0.1" d="M123.981 23.2013L123.109 27.2191C123.323 27.2329 123.573 27.2457 123.855 27.2575C124.512 27.2832 125.335 27.2999 126.226 27.293C126.547 26.2378 126.857 25.1245 127.091 24.088C127.891 20.5412 126.558 15.1224 125.847 12.5608C125.136 9.99923 123.581 12.8071 123.581 12.8071C123.581 12.8071 124.203 11.1322 123.048 12.0189C121.893 12.9057 123.981 23.2013 123.981 23.2013Z" fill="black"/>
<path d="M123.714 9.30957C123.714 9.30957 125.492 9.99923 126.202 12.5608C126.913 15.1224 128.246 20.5412 127.447 24.088C126.647 27.6349 124.958 32.0684 124.958 32.0684C124.958 32.0684 123.27 30.6891 122.648 30.9847L124.336 23.2013C124.336 23.2013 120.515 11.3786 121.671 10.4918C122.298 9.99178 122.986 9.59366 123.714 9.30957Z" fill="#575A89"/>
<path d="M125.039 58.7279L100.454 1.9259L59.347 23.7978L74.4653 58.7279H125.039Z" fill="#F2F2F2"/>
<path d="M92.135 24.222L70.3014 35.8389L70.9517 37.3415L92.7853 25.7246L92.135 24.222Z" fill="#3F3D56"/>
<path d="M97.9157 37.5781L76.082 49.1951L76.7324 50.6976L98.566 39.0807L97.9157 37.5781Z" fill="#3F3D56"/>
<path d="M101.887 16.3634L96.4658 19.2476L99.0671 25.2578L104.488 22.3736L101.887 16.3634Z" fill="#3F3D56"/>
<path d="M107.667 29.7195L102.247 32.6037L104.848 38.6139L110.269 35.7297L107.667 29.7195Z" fill="#3F3D56"/>
<path d="M102.26 12.2003L100.028 19.2429L97.0182 18.07L96.6064 19.3692L100.784 20.9968L103.432 12.6569L102.26 12.2003Z" fill="#57B894"/>
<path d="M108.041 25.5563L105.808 32.5989L102.799 31.4263L102.387 32.7252L106.564 34.3529L109.212 26.013L108.041 25.5563Z" fill="#57B894"/>
<path d="M2.37259 124.104L13.4797 121.473L11.1072 109.158L1.28701e-05 111.789L2.37259 124.104Z" fill="#F2F2F2"/>
<path d="M13.1708 105.868C13.1708 105.868 9.09116 109.098 10.4511 110.391C11.8109 111.683 14.5307 106.514 14.5307 106.514L13.1708 105.868Z" fill="#FFB9B9"/>
<path d="M32.0151 110.822C32.0151 110.822 31.238 121.592 31.0437 123.099C30.8495 124.607 30.6552 138.177 30.2667 139.685C29.8781 141.193 29.4896 144.854 29.4896 144.854H27.1583C27.1583 144.854 27.3526 138.177 26.7698 135.592C26.187 133.008 26.3813 125.899 26.3813 125.899C26.3813 125.899 25.2156 113.191 25.7984 111.468C26.3813 109.745 32.0151 110.822 32.0151 110.822Z" fill="#FFB9B9"/>
<path d="M28.9067 144.208C28.9067 144.208 29.8781 144.854 29.8781 145.285C29.8781 145.716 29.6838 146.793 29.8781 147.224C30.0724 147.655 31.4323 149.378 30.6552 149.809C29.8781 150.239 26.3812 149.809 26.3812 149.809C26.3812 149.809 26.5755 146.793 26.7698 146.578C26.964 146.362 26.5755 144.208 26.5755 144.208H28.9067Z" fill="#2F2E41"/>
<path d="M17.1643 110.558C17.1643 110.558 16.9175 121.359 16.9679 122.881C17.0184 124.403 15.9269 137.92 16.1705 139.465C16.4142 141.01 16.4539 144.696 16.4539 144.696L18.7723 144.968C18.7723 144.968 19.2112 138.305 20.0355 135.802C20.8598 133.299 21.3396 126.208 21.3396 126.208C21.3396 126.208 23.7019 113.705 23.2854 111.924C22.8689 110.142 17.1643 110.558 17.1643 110.558Z" fill="#FFB9B9"/>
<path d="M17.0947 144.122C17.0947 144.122 16.0675 144.651 16.0268 145.08C15.986 145.508 16.0772 146.602 15.8432 147.007C15.6092 147.413 14.0937 148.969 14.8257 149.487C15.5577 150.006 19.0761 149.985 19.0761 149.985C19.0761 149.985 19.1684 146.963 18.9956 146.727C18.8228 146.49 19.4131 144.393 19.4131 144.393L17.0947 144.122Z" fill="#2F2E41"/>
<path d="M29.2953 94.6669C29.2953 94.6669 30.8495 94.8823 31.4323 98.544C32.0151 102.206 34.1521 111.468 32.4036 112.114C30.6552 112.76 25.4099 114.053 25.2156 113.622C25.0213 113.191 24.6328 112.114 24.6328 112.114C24.6328 112.114 25.2156 114.053 24.4385 114.053C23.6615 114.053 16.0849 112.76 16.2792 112.114C16.4735 111.468 16.862 106.729 16.862 106.729C16.862 106.729 18.0276 98.7594 19.1932 97.467C19.5306 97.108 19.7925 96.6709 19.9604 96.187C20.1282 95.7031 20.198 95.1841 20.1646 94.6669H29.2953Z" fill="#2F2E41"/>
<path d="M32.2093 92.9437C32.2093 92.9437 29.6838 92.2975 29.2953 93.1591C28.9067 94.0207 30.2666 95.3131 30.8494 95.3131C31.4323 95.3131 32.4036 94.6669 32.4036 94.6669L32.2093 92.9437Z" fill="#FFB9B9"/>
<path d="M26.964 74.635C28.8953 74.635 30.4609 72.8991 30.4609 70.7578C30.4609 68.6165 28.8953 66.8807 26.964 66.8807C25.0328 66.8807 23.4672 68.6165 23.4672 70.7578C23.4672 72.8991 25.0328 74.635 26.964 74.635Z" fill="#FFB9B9"/>
<path d="M26.3813 73.558C26.3813 73.558 25.7985 76.5735 26.187 76.5735C26.5755 76.5735 23.2729 78.5121 23.2729 78.5121L20.7474 78.0813L19.9703 76.7889C19.9703 76.7889 24.05 73.7734 24.05 72.0502C24.05 70.327 26.3813 73.558 26.3813 73.558Z" fill="#FFB9B9"/>
<path d="M24.6328 76.5735C24.6328 76.5735 25.2156 76.1427 25.4099 76.1427H26.964C27.1583 76.1427 29.6838 76.7889 29.6838 76.7889L31.238 86.4818C31.238 86.4818 28.5182 91.4359 30.4609 95.3131C30.4609 95.3131 29.8781 94.8823 27.1583 95.0977C24.4385 95.3131 19.5818 95.9593 19.3875 95.9593C19.1932 95.9593 19.1932 94.2361 19.3875 93.8053C19.5818 93.3745 19.1932 93.5899 19.1932 92.5129C19.1932 91.4359 18.6104 89.4974 18.6104 89.4974L15.8906 78.5121C15.8906 78.5121 19.3875 76.3581 19.9703 76.5735C20.5531 76.7889 22.3016 77.4351 22.6901 77.2197C23.0786 77.0043 24.6328 76.5735 24.6328 76.5735Z" fill="#6C63FF"/>
<path d="M29.1011 77.0043L29.6839 76.7889C29.6839 76.7889 30.8495 76.5735 32.2094 77.8659C33.5693 79.1583 38.6203 83.0354 38.6203 83.0354C38.6203 83.0354 40.563 84.7586 39.9802 86.6972C39.3974 88.6358 38.4261 93.3745 35.512 93.1591C35.512 93.1591 33.7636 95.7439 32.7922 95.3131C31.8209 94.8823 31.0438 93.1591 31.6266 92.9437C32.2094 92.7283 33.7636 90.5743 33.7636 90.5743L31.8209 86.4818H31.2381L29.1011 85.1894L29.1011 77.0043Z" fill="#6C63FF"/>
<path d="M17.4448 78.2967L15.8907 78.5121C15.8907 78.5121 14.5308 79.1583 14.725 81.9585C14.9193 84.7586 13.5594 97.4671 14.1422 98.9748C14.1422 98.9748 12.1995 106.298 12.5881 106.514C12.9766 106.729 15.3078 108.021 15.1136 107.16C14.9193 106.298 17.2506 100.267 17.2506 100.267C17.2506 100.267 19.9703 97.0362 18.8047 92.5129V88.8512L17.4448 78.2967Z" fill="#6C63FF"/>
<path d="M29.8744 74.5063L27.4047 75.1028L27.0874 73.7545L27.2094 75.1501L23.2253 76.1124L23.05 75.368L23.1174 76.1384L20.5656 76.7548L20.0197 70.9448C19.4585 68.5607 21.5067 66.0197 23.657 65.3975L24.6109 65.1214C26.1902 64.6644 29.0609 65.0799 29.4731 66.831C28.7517 69.8839 27.5219 73.2308 29.8744 74.5063Z" fill="#2F2E41"/>
</g>
<defs>
<clipPath id="clip0_2_308">
<rect width="180" height="150" fill="white"/>
</clipPath>
</defs>
</svg>
